<?xml version="1.0" standalone="no"?>
<!DOCTYPE svg PUBLIC "-//W3C//DTD SVG 20010904//EN" "http://www.w3.org/TR/2001/REC-SVG-20010904/DTD/svg10.dtd">
<!-- Created using Karbon, part of Calligra: http://www.calligra.org/karbon -->
<svg xmlns="http://www.w3.org/2000/svg" xmlns:xlink="http://www.w3.org/1999/xlink" width="320pt" height="320pt">
<defs/>
<g id="svgg">
  <path id="path0" transform="translate(62.1973, 95.3322)" fill="#7c0618" fill-rule="evenodd" d="M234.57 7.006C226.676 14.979 217.505 24.395 215.521 26.561C214.784 27.367 212.33 29.917 210.068 32.228C207.807 34.54 203.486 39.022 200.467 42.189C197.448 45.356 192.921 50.08 190.408 52.687C187.895 55.293 185.356 57.97 184.765 58.635C184.174 59.301 182.416 61.167 180.858 62.7831C179.3 64.3991 176.4 67.4351 174.413 69.5291C172.426 71.6241 168.427 75.8031 165.527 78.8161C162.626 81.8291 158.759 85.8711 156.933 87.7971C155.107 89.7231 151.503 93.4581 148.925 96.0961C144.111 101.023 139.72 105.579 128.32 117.479C124.721 121.235 120.019 126.117 117.871 128.328C115.722 130.539 112.705 133.683 111.165 135.314C107.361 139.345 108.735 139.847 99.69 131.126C90.163 121.94 79.86 112.056 77.221 109.569C75.682 108.118 71.424 104.032 67.758 100.487C64.093 96.9421 59.175 92.2401 56.83 90.0371C50.574 84.1621 43.131 77.0851 39.559 73.6151C35.054 69.2391 34.956 69.1861 33.485 70.3621C31.373 72.0491 0 103.71 0 104.154C0 104.885 1.082 106.116 3.729 108.394C5.081 109.559 6.839 111.22 7.635 112.087C8.431 112.953 11.169 115.612 13.72 117.994C16.271 120.377 18.359 122.39 18.359 122.467C18.359 122.544 20.051 124.218 22.119 126.187C27.332 131.151 34.462 137.995 38.183 141.606C46.241 149.426 58.075 160.815 59.57 162.189C60.483 163.029 62.197 164.696 63.378 165.894C64.56 167.092 67.878 170.294 70.751 173.01C73.625 175.725 75.976 178.019 75.976 178.108C75.976 178.196 76.965 179.173 78.173 180.278C79.382 181.383 83.089 184.932 86.412 188.164C89.734 191.397 94.304 195.84 96.568 198.038C98.831 200.236 102.133 203.45 103.906 205.181C109.389 210.536 109.265 210.521 112.897 206.248C113.673 205.335 115.556 203.314 117.082 201.756C118.607 200.199 120.332 198.39 120.914 197.736C122.267 196.217 132.589 185.203 135.542 182.127C136.78 180.838 138.803 178.67 140.039 177.31C142.387 174.724 154.464 161.813 158.006 158.102C159.135 156.92 161.772 154.127 163.867 151.896C165.961 149.666 168.809 146.634 170.194 145.16C171.58 143.685 175.017 140.062 177.832 137.108C180.647 134.154 183.908 130.719 185.078 129.475C186.249 128.231 191.689 122.47 197.167 116.673C202.646 110.876 208.842 104.291 210.937 102.04C213.032 99.7891 215.889 96.7611 217.287 95.3111C218.685 93.8611 222.055 90.2841 224.776 87.3621C227.497 84.4401 229.802 82.0231 229.897 81.9911C229.993 81.9591 231.369 80.5111 232.955 78.7731C237.825 73.4401 254.158 56.132 254.716 55.714C254.894 55.581 255.869 54.526 256.883 53.37C257.898 52.214 259.809 50.169 261.131 48.827C262.453 47.484 264.551 45.243 265.795 43.846C267.038 42.45 268.766 40.604 269.635 39.744C272.583 36.828 275.136 34.011 275.394 33.388C275.865 32.251 276.811 33.274 261.123 17.967C257.324 14.261 252.63 9.632 250.692 7.68C246.066 3.023 242.64 -0.00199901 241.992 9.91131e-07C241.61 0.00200099 239.996 1.526 234.57 7.006"/>
 </g>
</svg>
